<svg width="768" height="230" viewBox="0 0 768 230" fill="none" xmlns="http://www.w3.org/2000/svg">
<g clip-path="url(#clip0_3798_51095)">
<path d="M153.363 1C217.73 1 290.68 228.718 361.484 228.718C432.288 228.718 498.801 1 569.605 1C640.409 1 704.139 213.332 758.851 213.332" stroke="#BEBEBE"/>
<path d="M-263 1C-198.633 1 -125.683 228.718 -54.8788 228.718C15.9253 228.718 82.6959 1 153.5 1" stroke="#BEBEBE"/>
<path d="M152.753 192.001C152.339 192.001 152.003 192.337 152.003 192.751C152.003 193.165 152.339 193.501 152.753 193.501V192.751V192.001ZM152.804 193.501C153.218 193.501 153.554 193.164 153.553 192.75C153.553 192.336 153.217 192.001 152.803 192.001L152.803 192.751L152.804 193.501ZM159.753 191.494C159.343 191.552 159.058 191.932 159.117 192.343C159.176 192.753 159.556 193.037 159.966 192.978L159.86 192.236L159.753 191.494ZM160.067 192.964C160.477 192.904 160.761 192.524 160.701 192.114C160.642 191.704 160.261 191.42 159.851 191.479L159.959 192.222L160.067 192.964ZM166.679 190.036C166.28 190.146 166.045 190.559 166.156 190.958C166.266 191.357 166.679 191.592 167.078 191.481L166.879 190.758L166.679 190.036ZM167.176 191.454C167.575 191.343 167.809 190.93 167.698 190.531C167.587 190.132 167.173 189.898 166.774 190.009L166.975 190.732L167.176 191.454ZM173.402 187.771C173.017 187.924 172.829 188.359 172.981 188.745C173.134 189.13 173.57 189.318 173.955 189.166L173.679 188.468L173.402 187.771ZM174.049 189.129C174.434 188.976 174.621 188.539 174.468 188.155C174.315 187.77 173.879 187.582 173.494 187.735L173.772 188.432L174.049 189.129ZM179.888 184.85C179.518 185.037 179.369 185.488 179.555 185.857C179.742 186.227 180.192 186.376 180.562 186.19L180.225 185.52L179.888 184.85ZM180.652 186.145C181.022 185.958 181.171 185.507 180.984 185.137C180.797 184.768 180.346 184.619 179.976 184.806L180.314 185.475L180.652 186.145ZM186.131 181.406C185.776 181.619 185.661 182.079 185.873 182.435C186.086 182.79 186.547 182.905 186.902 182.693L186.517 182.049L186.131 181.406ZM186.988 182.641C187.343 182.428 187.458 181.967 187.245 181.612C187.032 181.257 186.571 181.142 186.216 181.355L186.602 181.998L186.988 182.641ZM192.146 177.546C191.804 177.779 191.716 178.246 191.95 178.588C192.184 178.93 192.65 179.018 192.992 178.784L192.569 178.165L192.146 177.546ZM193.075 178.727C193.417 178.493 193.504 178.027 193.27 177.685C193.036 177.343 192.569 177.256 192.227 177.49L192.651 178.109L193.075 178.727ZM197.937 173.367C197.607 173.617 197.542 174.088 197.792 174.418C198.043 174.748 198.513 174.812 198.843 174.562L198.39 173.965L197.937 173.367ZM198.925 174.5C199.255 174.249 199.32 173.779 199.069 173.449C198.818 173.119 198.348 173.055 198.018 173.305L198.472 173.902L198.925 174.5ZM203.531 168.936C203.212 169.2 203.166 169.672 203.43 169.992C203.693 170.311 204.166 170.357 204.485 170.093L204.008 169.515L203.531 168.936ZM204.564 170.028C204.884 169.764 204.929 169.292 204.665 168.972C204.402 168.653 203.929 168.608 203.61 168.871L204.087 169.45L204.564 170.028ZM208.967 164.293C208.657 164.567 208.627 165.041 208.901 165.352C209.175 165.662 209.649 165.692 209.96 165.418L209.463 164.856L208.967 164.293ZM210.036 165.35C210.347 165.076 210.376 164.602 210.102 164.292C209.827 163.981 209.353 163.952 209.043 164.226L209.54 164.788L210.036 165.35ZM214.268 159.477C213.965 159.76 213.949 160.234 214.232 160.537C214.514 160.84 214.989 160.856 215.292 160.573L214.78 160.025L214.268 159.477ZM215.366 160.504C215.668 160.221 215.684 159.747 215.402 159.444C215.119 159.141 214.644 159.125 214.342 159.408L214.854 159.956L215.366 160.504ZM219.453 154.518C219.157 154.808 219.152 155.283 219.442 155.579C219.731 155.875 220.206 155.88 220.502 155.59L219.978 155.054L219.453 154.518ZM220.574 155.52C220.87 155.23 220.875 154.755 220.586 154.459C220.296 154.163 219.821 154.158 219.525 154.448L220.05 154.984L220.574 155.52ZM224.54 149.444C224.249 149.739 224.253 150.214 224.548 150.504C224.844 150.795 225.319 150.791 225.609 150.496L225.075 149.97L224.54 149.444ZM225.679 150.424C225.97 150.129 225.966 149.654 225.671 149.364C225.375 149.073 224.901 149.077 224.61 149.373L225.145 149.898L225.679 150.424ZM229.518 144.302C229.233 144.602 229.244 145.076 229.544 145.362C229.843 145.648 230.318 145.637 230.604 145.337L230.061 144.82L229.518 144.302ZM230.674 145.263C230.96 144.964 230.949 144.489 230.649 144.203C230.349 143.917 229.874 143.929 229.589 144.228L230.131 144.746L230.674 145.263ZM234.432 139.082C234.15 139.385 234.168 139.859 234.471 140.142C234.774 140.424 235.249 140.406 235.531 140.103L234.982 139.592L234.432 139.082ZM235.6 140.029C235.882 139.725 235.865 139.251 235.561 138.969C235.258 138.687 234.783 138.704 234.501 139.007L235.05 139.518L235.6 140.029ZM239.295 133.798C239.016 134.104 239.038 134.578 239.344 134.857C239.65 135.137 240.124 135.115 240.403 134.808L239.849 134.303L239.295 133.798ZM240.471 134.734C240.75 134.428 240.728 133.953 240.422 133.674C240.116 133.395 239.642 133.417 239.363 133.723L239.917 134.229L240.471 134.734ZM244.114 128.469C243.838 128.777 243.863 129.251 244.171 129.528C244.479 129.805 244.954 129.779 245.23 129.471L244.672 128.97L244.114 128.469ZM245.298 129.396C245.575 129.088 245.549 128.614 245.241 128.337C244.933 128.06 244.458 128.086 244.182 128.394L244.74 128.895L245.298 129.396ZM248.893 123.118C248.618 123.427 248.646 123.901 248.955 124.177C249.265 124.452 249.739 124.424 250.014 124.114L249.454 123.616L248.893 123.118ZM250.082 124.038C250.357 123.729 250.329 123.255 250.019 122.98C249.71 122.705 249.235 122.732 248.96 123.042L249.521 123.54L250.082 124.038ZM253.655 117.742C253.381 118.052 253.41 118.526 253.721 118.8C254.031 119.075 254.505 119.045 254.779 118.735L254.217 118.238L253.655 117.742ZM254.846 118.659C255.12 118.348 255.091 117.874 254.781 117.6C254.47 117.326 253.996 117.355 253.722 117.666L254.284 118.162L254.846 118.659ZM258.409 112.354C258.135 112.665 258.164 113.139 258.475 113.413C258.786 113.687 259.26 113.657 259.534 113.346L258.971 112.85L258.409 112.354ZM259.601 113.27C259.875 112.96 259.845 112.486 259.534 112.212C259.224 111.938 258.75 111.967 258.476 112.278L259.038 112.774L259.601 113.27ZM263.16 106.971C262.886 107.281 262.915 107.755 263.225 108.03C263.536 108.304 264.01 108.275 264.284 107.965L263.722 107.468L263.16 106.971ZM264.351 107.889C264.625 107.579 264.596 107.105 264.286 106.83C263.976 106.556 263.502 106.585 263.227 106.895L263.789 107.392L264.351 107.889ZM267.932 101.591C267.656 101.9 267.684 102.375 267.993 102.65C268.303 102.925 268.777 102.898 269.052 102.589L268.492 102.09L267.932 101.591ZM269.119 102.513C269.395 102.204 269.367 101.73 269.058 101.454C268.748 101.179 268.274 101.206 267.999 101.516L268.559 102.014L269.119 102.513ZM272.729 96.2318C272.451 96.5396 272.476 97.0138 272.784 97.291C273.092 97.5682 273.566 97.5433 273.843 97.2355L273.286 96.7337L272.729 96.2318ZM273.911 97.1604C274.188 96.8526 274.163 96.3784 273.856 96.1012C273.548 95.824 273.074 95.8487 272.796 96.1565L273.354 96.6585L273.911 97.1604ZM277.558 90.9098C277.279 91.2153 277.3 91.6897 277.605 91.9694C277.911 92.2491 278.385 92.2281 278.665 91.9226L278.112 91.4162L277.558 90.9098ZM278.733 91.8477C279.013 91.5422 278.992 91.0678 278.687 90.7881C278.381 90.5084 277.907 90.5293 277.627 90.8348L278.18 91.3412L278.733 91.8477ZM282.431 85.6406C282.148 85.9432 282.164 86.4178 282.467 86.7007C282.769 86.9836 283.244 86.9678 283.527 86.6652L282.979 86.1529L282.431 85.6406ZM283.595 86.592C283.878 86.2895 283.863 85.8149 283.56 85.5319C283.258 85.2489 282.783 85.2647 282.5 85.5672L283.048 86.0796L283.595 86.592ZM287.39 80.4083C287.103 80.707 287.112 81.1817 287.411 81.4688C287.709 81.7559 288.184 81.7465 288.471 81.4479L287.931 80.9281L287.39 80.4083ZM288.541 81.3755C288.828 81.077 288.819 80.6022 288.52 80.315C288.222 80.0279 287.747 80.0372 287.46 80.3357L288 80.8556L288.541 81.3755ZM292.426 75.2556C292.134 75.5493 292.135 76.0242 292.429 76.3163C292.722 76.6084 293.197 76.6072 293.489 76.3135L292.958 75.7846L292.426 75.2556ZM293.561 76.2421C293.853 75.9485 293.852 75.4736 293.558 75.1814C293.264 74.8892 292.79 74.8903 292.497 75.1839L293.029 75.713L293.561 76.2421ZM297.555 70.2044C297.256 70.4918 297.247 70.9666 297.535 71.2649C297.822 71.5631 298.297 71.5719 298.595 71.2845L298.075 70.7444L297.555 70.2044ZM298.668 71.2141C298.967 70.9268 298.976 70.452 298.688 70.1536C298.401 69.8553 297.926 69.8464 297.628 70.1337L298.148 70.6739L298.668 71.2141ZM302.794 65.2791C302.488 65.5587 302.467 66.0331 302.747 66.3387C303.027 66.6442 303.501 66.6652 303.807 66.3855L303.3 65.8323L302.794 65.2791ZM303.882 66.3167C304.188 66.0371 304.209 65.5627 303.929 65.2571C303.65 64.9514 303.175 64.9303 302.87 65.2098L303.376 65.7632L303.882 66.3167ZM308.167 60.5082C307.853 60.7782 307.817 61.2517 308.087 61.5659C308.357 61.88 308.831 61.9158 309.145 61.6459L308.656 61.077L308.167 60.5082ZM309.223 61.579C309.537 61.3092 309.573 60.8357 309.303 60.5214C309.034 60.2071 308.56 60.171 308.246 60.4408L308.734 61.0099L309.223 61.579ZM313.736 55.9004C313.411 56.1581 313.357 56.6299 313.615 56.9542C313.873 57.2785 314.345 57.3326 314.669 57.0749L314.202 56.4877L313.736 55.9004ZM314.747 57.0132C315.071 56.7557 315.125 56.2839 314.868 55.9595C314.61 55.635 314.139 55.5807 313.814 55.8382L314.28 56.4257L314.747 57.0132ZM319.497 51.5342C319.161 51.7763 319.084 52.245 319.326 52.5811C319.568 52.9173 320.037 52.9935 320.373 52.7515L319.935 52.1429L319.497 51.5342ZM320.454 52.6934C320.79 52.4516 320.867 51.9829 320.625 51.6466C320.383 51.3103 319.915 51.2337 319.578 51.4755L320.016 52.0845L320.454 52.6934ZM325.481 47.4757C325.131 47.6977 325.028 48.1612 325.25 48.5109C325.472 48.8605 325.935 48.964 326.285 48.742L325.883 48.1089L325.481 47.4757ZM326.369 48.6887C326.719 48.467 326.823 48.0036 326.601 47.6537C326.38 47.3039 325.916 47.1999 325.566 47.4216L325.968 48.0552L326.369 48.6887ZM331.722 43.8125C331.357 44.0087 331.22 44.4634 331.416 44.8282C331.613 45.1931 332.067 45.3299 332.432 45.1337L332.077 44.4731L331.722 43.8125ZM332.52 45.0867C332.885 44.891 333.022 44.4364 332.826 44.0713C332.631 43.7062 332.176 43.569 331.811 43.7647L332.165 44.4257L332.52 45.0867ZM338.246 40.6625C337.865 40.825 337.688 41.2656 337.85 41.6466C338.013 42.0276 338.454 42.2047 338.835 42.0422L338.54 41.3524L338.246 40.6625ZM338.926 42.0034C339.307 41.8414 339.485 41.401 339.323 41.0198C339.161 40.6386 338.721 40.4608 338.339 40.6228L338.633 41.3131L338.926 42.0034ZM345.063 38.1791C344.667 38.2982 344.442 38.7164 344.561 39.1131C344.68 39.5098 345.098 39.7348 345.495 39.6157L345.279 38.8974L345.063 38.1791ZM345.59 39.5873C345.986 39.4689 346.212 39.0511 346.094 38.6542C345.975 38.2572 345.557 38.0315 345.161 38.15L345.375 38.8687L345.59 39.5873ZM352.147 36.548C351.738 36.6128 351.458 36.997 351.523 37.4061C351.588 37.8152 351.972 38.0944 352.381 38.0296L352.264 37.2888L352.147 36.548ZM352.479 38.0142C352.888 37.9503 353.168 37.5667 353.104 37.1575C353.04 36.7482 352.657 36.4683 352.247 36.5322L352.363 37.2732L352.479 38.0142ZM359.41 35.9617C358.996 35.9622 358.661 36.2983 358.661 36.7126C358.662 37.1268 358.998 37.4622 359.412 37.4617L359.411 36.7117L359.41 35.9617ZM359.51 37.4617C359.924 37.4622 360.26 37.1268 360.261 36.7125C360.261 36.2983 359.926 35.9622 359.512 35.9617L359.511 36.7117L359.51 37.4617ZM366.525 36.5067C366.116 36.4444 365.733 36.7258 365.671 37.1353C365.609 37.5448 365.89 37.9273 366.3 37.9896L366.412 37.2482L366.525 36.5067ZM366.395 38.0042C366.804 38.0674 367.187 37.7867 367.25 37.3773C367.314 36.9679 367.033 36.5849 366.623 36.5218L366.509 37.263L366.395 38.0042ZM373.473 38.0481C373.075 37.9329 372.659 38.1621 372.544 38.56C372.429 38.9578 372.658 39.3738 373.056 39.489L373.265 38.7686L373.473 38.0481ZM373.149 39.5159C373.546 39.6318 373.963 39.4033 374.079 39.0056C374.194 38.6079 373.966 38.1916 373.568 38.0758L373.359 38.7958L373.149 39.5159ZM380.176 40.4019C379.793 40.2444 379.355 40.4273 379.197 40.8105C379.04 41.1936 379.223 41.6318 379.606 41.7893L379.891 41.0956L380.176 40.4019ZM379.695 41.8261C380.078 41.9841 380.517 41.8017 380.675 41.4188C380.833 41.0359 380.65 40.5974 380.267 40.4395L379.981 41.1328L379.695 41.8261ZM386.609 43.3935C386.241 43.2031 385.789 43.347 385.598 43.7149C385.408 44.0828 385.552 44.5353 385.92 44.7257L386.264 44.0596L386.609 43.3935ZM386.006 44.7703C386.373 44.9611 386.826 44.8177 387.017 44.45C387.208 44.0824 387.064 43.6296 386.697 43.4389L386.351 44.1046L386.006 44.7703ZM392.781 46.88C392.427 46.6641 391.966 46.7756 391.75 47.1291C391.534 47.4825 391.645 47.9441 391.999 48.1601L392.39 47.52L392.781 46.88ZM392.081 48.2106C392.435 48.4268 392.896 48.3157 393.113 47.9624C393.329 47.6091 393.218 47.1474 392.865 46.9312L392.473 47.5709L392.081 48.2106ZM398.715 50.7512C398.375 50.5154 397.908 50.6003 397.672 50.9408C397.436 51.2814 397.521 51.7486 397.861 51.9844L398.288 51.3678L398.715 50.7512ZM397.941 52.0395C398.281 52.2755 398.748 52.191 398.985 51.8506C399.221 51.5102 399.136 51.043 398.796 50.8069L398.368 51.4232L397.941 52.0395ZM404.424 54.9113C404.095 54.6599 403.624 54.7229 403.373 55.0521C403.121 55.3813 403.184 55.852 403.514 56.1034L403.969 55.5074L404.424 54.9113ZM403.593 56.1644C403.922 56.416 404.393 56.3532 404.645 56.0242C404.896 55.6951 404.834 55.2244 404.505 54.9728L404.049 55.5686L403.593 56.1644ZM409.935 59.2946C409.616 59.0309 409.143 59.076 408.879 59.3953C408.616 59.7147 408.661 60.1874 408.98 60.4512L409.458 59.8729L409.935 59.2946ZM409.057 60.5147C409.376 60.7786 409.849 60.7338 410.113 60.4145C410.377 60.0953 410.332 59.6225 410.013 59.3586L409.535 59.9367L409.057 60.5147ZM415.295 63.8688C414.984 63.5952 414.51 63.6254 414.236 63.9363C413.962 64.2473 413.993 64.7212 414.304 64.9948L414.799 64.4318L415.295 63.8688ZM414.378 65.0603C414.689 65.3341 415.163 65.3041 415.437 64.9932C415.71 64.6824 415.68 64.2085 415.369 63.9347L414.874 64.4975L414.378 65.0603ZM420.527 68.5994C420.223 68.3177 419.748 68.3356 419.467 68.6394C419.185 68.9431 419.203 69.4176 419.507 69.6993L420.017 69.1493L420.527 68.5994ZM419.579 69.7663C419.883 70.048 420.357 70.0303 420.639 69.7266C420.921 69.423 420.903 68.9484 420.599 68.6667L420.089 69.2165L419.579 69.7663ZM425.651 73.4577C425.353 73.1696 424.878 73.1773 424.59 73.4749C424.302 73.7725 424.31 74.2474 424.607 74.5355L425.129 73.9966L425.651 73.4577ZM424.678 74.6036C424.975 74.8918 425.45 74.8843 425.738 74.5867C426.027 74.2892 426.019 73.8144 425.721 73.5262L425.2 74.0649L424.678 74.6036ZM430.674 78.4098C430.381 78.1165 429.906 78.1158 429.613 78.4083C429.32 78.7007 429.319 79.1756 429.612 79.4689L430.143 78.9393L430.674 78.4098ZM429.682 79.5397C429.974 79.8331 430.449 79.8338 430.743 79.5414C431.036 79.249 431.037 78.7742 430.745 78.4808L430.213 79.0102L429.682 79.5397ZM435.598 83.4225C435.31 83.125 434.835 83.1175 434.538 83.4057C434.24 83.694 434.233 84.1688 434.521 84.4663L435.06 83.9444L435.598 83.4225ZM434.59 84.5376C434.878 84.8351 435.353 84.8427 435.651 84.5545C435.948 84.2663 435.956 83.7915 435.668 83.494L435.129 84.0158L434.59 84.5376ZM440.467 88.5081C440.182 88.2073 439.708 88.1943 439.407 88.4791C439.106 88.7639 439.093 89.2386 439.378 89.5394L439.923 89.0237L440.467 88.5081ZM439.446 89.6111C439.731 89.912 440.205 89.925 440.506 89.6403C440.807 89.3555 440.82 88.8809 440.535 88.58L439.991 89.0956L439.446 89.6111ZM445.289 93.649C445.007 93.3456 444.532 93.3283 444.229 93.6104C443.925 93.8924 443.908 94.367 444.19 94.6703L444.739 94.1597L445.289 93.649ZM444.257 94.7425C444.539 95.0459 445.014 95.0632 445.317 94.7812C445.62 94.4992 445.638 94.0247 445.356 93.7213L444.806 94.2319L444.257 94.7425ZM450.062 98.8199C449.782 98.5147 449.308 98.4942 449.002 98.7742C448.697 99.0541 448.677 99.5286 448.957 99.8338L449.509 99.3269L450.062 98.8199ZM449.024 99.9071C449.304 100.212 449.778 100.233 450.083 99.9529C450.389 99.6729 450.409 99.1985 450.129 98.8932L449.576 99.4002L449.024 99.9071ZM454.802 104.013C454.523 103.707 454.049 103.684 453.742 103.963C453.436 104.241 453.413 104.716 453.692 105.022L454.247 104.518L454.802 104.013ZM453.758 105.095C454.037 105.402 454.511 105.425 454.818 105.146C455.124 104.868 455.147 104.393 454.868 104.087L454.313 104.591L453.758 105.095ZM459.527 109.228C459.249 108.921 458.775 108.897 458.467 109.175C458.16 109.453 458.136 109.927 458.414 110.234L458.97 109.731L459.527 109.228ZM458.48 110.308C458.758 110.615 459.232 110.639 459.539 110.361C459.847 110.083 459.871 109.609 459.593 109.302L459.037 109.805L458.48 110.308ZM464.24 114.449C463.963 114.141 463.489 114.117 463.181 114.395C462.874 114.672 462.849 115.146 463.127 115.454L463.684 114.951L464.24 114.449ZM463.193 115.527C463.471 115.835 463.945 115.859 464.253 115.582C464.56 115.304 464.584 114.83 464.307 114.522L463.75 115.025L463.193 115.527ZM468.954 119.666C468.676 119.359 468.202 119.335 467.895 119.613C467.587 119.891 467.564 120.365 467.842 120.673L468.398 120.169L468.954 119.666ZM467.908 120.746C468.186 121.053 468.66 121.077 468.967 120.799C469.274 120.521 469.298 120.047 469.02 119.74L468.464 120.243L467.908 120.746ZM473.68 124.875C473.401 124.569 472.927 124.546 472.621 124.825C472.314 125.104 472.292 125.578 472.571 125.885L473.125 125.38L473.68 124.875ZM472.638 125.958C472.917 126.264 473.391 126.286 473.697 126.008C474.003 125.729 474.026 125.254 473.747 124.948L473.192 125.453L472.638 125.958ZM478.423 130.058C478.142 129.754 477.668 129.734 477.363 130.014C477.058 130.295 477.038 130.769 477.319 131.074L477.871 130.566L478.423 130.058ZM477.386 131.147C477.667 131.452 478.141 131.472 478.446 131.191C478.751 130.911 478.77 130.436 478.49 130.131L477.938 130.639L477.386 131.147ZM483.195 135.21C482.912 134.907 482.438 134.891 482.135 135.173C481.832 135.456 481.816 135.931 482.099 136.233L482.647 135.722L483.195 135.21ZM482.166 136.305C482.449 136.608 482.923 136.624 483.226 136.342C483.529 136.059 483.545 135.585 483.262 135.282L482.714 135.794L482.166 136.305ZM488.019 140.33C487.734 140.03 487.259 140.019 486.959 140.304C486.659 140.59 486.647 141.064 486.933 141.364L487.476 140.847L488.019 140.33ZM487.001 141.436C487.287 141.736 487.761 141.748 488.061 141.462C488.361 141.177 488.373 140.702 488.087 140.402L487.544 140.919L487.001 141.436ZM492.892 145.391C492.603 145.095 492.128 145.089 491.832 145.378C491.535 145.667 491.529 146.142 491.818 146.438L492.355 145.915L492.892 145.391ZM491.887 146.51C492.177 146.806 492.652 146.812 492.948 146.523C493.245 146.234 493.251 145.759 492.961 145.462L492.424 145.986L491.887 146.51ZM497.821 150.374C497.527 150.082 497.053 150.083 496.76 150.377C496.468 150.67 496.469 151.145 496.763 151.437L497.292 150.906L497.821 150.374ZM496.834 151.508C497.127 151.8 497.602 151.799 497.894 151.505C498.186 151.212 498.185 150.737 497.892 150.445L497.363 150.976L496.834 151.508ZM502.837 155.281C502.538 154.994 502.064 155.004 501.777 155.302C501.49 155.601 501.5 156.076 501.798 156.363L502.318 155.822L502.837 155.281ZM501.869 156.431C502.168 156.718 502.643 156.708 502.93 156.409C503.216 156.11 503.207 155.635 502.908 155.349L502.389 155.89L501.869 156.431ZM507.961 160.095C507.656 159.815 507.182 159.835 506.901 160.14C506.621 160.445 506.641 160.92 506.947 161.2L507.454 160.648L507.961 160.095ZM507.019 161.267C507.325 161.547 507.799 161.526 508.079 161.221C508.359 160.916 508.339 160.442 508.034 160.162L507.526 160.714L507.019 161.267ZM513.19 164.774C512.878 164.502 512.404 164.535 512.132 164.848C511.86 165.16 511.893 165.634 512.205 165.906L512.698 165.34L513.19 164.774ZM512.28 165.971C512.593 166.243 513.067 166.21 513.338 165.897C513.61 165.585 513.577 165.111 513.265 164.839L512.772 165.405L512.28 165.971ZM518.542 169.289C518.221 169.027 517.748 169.075 517.487 169.396C517.225 169.717 517.273 170.189 517.594 170.451L518.068 169.87L518.542 169.289ZM517.671 170.515C517.992 170.776 518.465 170.728 518.727 170.407C518.988 170.086 518.94 169.613 518.619 169.352L518.145 169.933L517.671 170.515ZM524.038 173.603C523.707 173.354 523.237 173.42 522.987 173.751C522.738 174.082 522.804 174.552 523.135 174.802L523.587 174.202L524.038 173.603ZM523.216 174.862C523.547 175.111 524.017 175.045 524.266 174.714C524.515 174.383 524.449 173.913 524.118 173.664L523.667 174.263L523.216 174.862ZM529.707 177.675C529.365 177.442 528.898 177.53 528.665 177.872C528.432 178.214 528.52 178.681 528.862 178.914L529.285 178.295L529.707 177.675ZM528.943 178.969C529.285 179.203 529.751 179.114 529.985 178.772C530.218 178.429 530.129 177.963 529.787 177.73L529.365 178.35L528.943 178.969ZM535.598 181.458C535.243 181.244 534.783 181.359 534.569 181.714C534.356 182.069 534.471 182.53 534.826 182.744L535.212 182.101L535.598 181.458ZM534.91 182.794C535.265 183.007 535.726 182.892 535.939 182.536C536.152 182.181 536.036 181.72 535.681 181.507L535.296 182.151L534.91 182.794ZM541.704 184.847C541.335 184.66 540.883 184.807 540.696 185.176C540.508 185.545 540.655 185.997 541.025 186.185L541.364 185.516L541.704 184.847ZM541.112 186.229C541.482 186.416 541.933 186.269 542.12 185.899C542.308 185.53 542.16 185.078 541.79 184.891L541.451 185.56L541.112 186.229ZM548.04 187.739C547.656 187.584 547.219 187.77 547.064 188.154C546.909 188.538 547.095 188.975 547.48 189.13L547.76 188.435L548.04 187.739ZM547.571 189.167C547.955 189.321 548.392 189.135 548.547 188.751C548.701 188.366 548.514 187.929 548.13 187.775L547.851 188.471L547.571 189.167ZM554.606 190C554.208 189.887 553.793 190.118 553.68 190.517C553.567 190.915 553.798 191.33 554.197 191.443L554.402 190.721L554.606 190ZM554.292 191.47C554.691 191.582 555.105 191.35 555.217 190.952C555.33 190.553 555.098 190.139 554.699 190.026L554.496 190.748L554.292 191.47ZM561.372 191.474C560.963 191.412 560.581 191.695 560.52 192.104C560.458 192.514 560.74 192.896 561.15 192.957L561.261 192.215L561.372 191.474ZM561.248 192.972C561.658 193.032 562.04 192.749 562.1 192.34C562.161 191.93 561.878 191.549 561.468 191.488L561.358 192.23L561.248 192.972ZM568.264 192.001C567.849 192.001 567.513 192.336 567.513 192.75C567.512 193.164 567.848 193.501 568.262 193.501L568.263 192.751L568.264 192.001ZM568.363 193.501C568.777 193.501 569.113 193.164 569.112 192.75C569.112 192.336 568.776 192.001 568.362 192.001L568.362 192.751L568.363 193.501ZM575.318 191.468C574.908 191.529 574.626 191.911 574.687 192.321C574.748 192.73 575.13 193.013 575.54 192.952L575.429 192.21L575.318 191.468ZM575.64 192.937C576.05 192.875 576.331 192.492 576.269 192.083C576.207 191.673 575.825 191.391 575.416 191.453L575.528 192.195L575.64 192.937ZM582.249 189.964C581.851 190.076 581.619 190.491 581.731 190.889C581.844 191.288 582.258 191.52 582.657 191.408L582.453 190.686L582.249 189.964ZM582.754 191.38C583.153 191.267 583.384 190.852 583.271 190.454C583.158 190.055 582.743 189.824 582.344 189.937L582.549 190.658L582.754 191.38ZM588.982 187.665C588.597 187.818 588.409 188.254 588.563 188.639C588.716 189.024 589.153 189.211 589.537 189.058L589.26 188.361L588.982 187.665ZM589.631 189.02C590.016 188.867 590.203 188.43 590.049 188.045C589.895 187.661 589.458 187.474 589.074 187.628L589.353 188.324L589.631 189.02ZM595.487 184.733C595.116 184.919 594.966 185.369 595.152 185.74C595.337 186.11 595.788 186.26 596.158 186.075L595.822 185.404L595.487 184.733ZM596.248 186.029C596.619 185.843 596.768 185.393 596.582 185.023C596.396 184.652 595.945 184.503 595.575 184.689L595.912 185.359L596.248 186.029ZM601.763 181.304C601.407 181.514 601.288 181.974 601.499 182.331C601.71 182.687 602.169 182.806 602.526 182.595L602.145 181.949L601.763 181.304ZM602.613 182.544C602.969 182.333 603.087 181.873 602.876 181.517C602.665 181.16 602.205 181.042 601.849 181.253L602.231 181.899L602.613 182.544ZM607.827 177.479C607.483 177.71 607.39 178.176 607.621 178.52C607.851 178.864 608.317 178.956 608.661 178.726L608.244 178.102L607.827 177.479ZM608.745 178.67C609.089 178.439 609.18 177.973 608.95 177.629C608.719 177.285 608.253 177.193 607.909 177.424L608.327 178.047L608.745 178.67ZM613.68 173.351C613.347 173.598 613.277 174.067 613.523 174.4C613.769 174.733 614.239 174.804 614.572 174.557L614.126 173.954L613.68 173.351ZM614.655 174.496C614.988 174.249 615.058 173.78 614.812 173.447C614.565 173.114 614.095 173.044 613.762 173.29L614.209 173.893L614.655 174.496ZM619.345 168.983C619.022 169.242 618.97 169.714 619.229 170.037C619.488 170.36 619.96 170.412 620.284 170.153L619.814 169.568L619.345 168.983ZM620.364 170.089C620.687 169.829 620.738 169.357 620.479 169.034C620.22 168.711 619.748 168.66 619.425 168.919L619.894 169.504L620.364 170.089ZM624.861 164.406C624.547 164.675 624.51 165.149 624.78 165.463C625.049 165.778 625.523 165.814 625.837 165.545L625.349 164.975L624.861 164.406ZM625.915 165.478C626.229 165.209 626.266 164.735 625.996 164.421C625.726 164.106 625.253 164.07 624.938 164.34L625.427 164.909L625.915 165.478ZM630.247 159.655C629.94 159.933 629.917 160.408 630.195 160.715C630.473 161.021 630.948 161.045 631.254 160.767L630.751 160.211L630.247 159.655ZM631.33 160.698C631.636 160.42 631.66 159.946 631.381 159.639C631.103 159.332 630.629 159.309 630.322 159.587L630.826 160.143L631.33 160.698ZM635.518 154.76C635.218 155.045 635.206 155.52 635.491 155.82C635.777 156.12 636.251 156.132 636.552 155.847L636.035 155.303L635.518 154.76ZM636.625 155.777C636.925 155.492 636.937 155.017 636.651 154.717C636.366 154.417 635.891 154.405 635.591 154.69L636.108 155.234L636.625 155.777ZM640.684 149.748C640.389 150.039 640.387 150.514 640.678 150.808C640.969 151.103 641.444 151.105 641.739 150.814L641.211 150.281L640.684 149.748ZM641.812 150.742C642.106 150.45 642.108 149.975 641.817 149.681C641.525 149.387 641.051 149.384 640.756 149.676L641.284 150.209L641.812 150.742ZM645.738 144.657C645.448 144.953 645.454 145.428 645.75 145.718C646.047 146.007 646.522 146.001 646.811 145.705L646.274 145.181L645.738 144.657ZM646.882 145.632C647.172 145.336 647.166 144.861 646.869 144.572C646.573 144.282 646.098 144.288 645.809 144.584L646.345 145.108L646.882 145.632ZM650.721 139.476C650.436 139.777 650.449 140.251 650.749 140.536C651.05 140.821 651.525 140.809 651.81 140.508L651.265 139.992L650.721 139.476ZM651.879 140.435C652.164 140.134 652.152 139.659 651.851 139.374C651.55 139.089 651.076 139.102 650.791 139.403L651.335 139.919L651.879 140.435ZM655.64 134.222C655.359 134.526 655.377 135.001 655.681 135.282C655.985 135.563 656.46 135.545 656.741 135.241L656.19 134.731L655.64 134.222ZM656.81 135.166C657.091 134.862 657.072 134.388 656.768 134.106C656.464 133.825 655.99 133.844 655.708 134.148L656.259 134.657L656.81 135.166ZM660.498 128.913C660.22 129.22 660.244 129.694 660.551 129.972C660.858 130.25 661.332 130.227 661.61 129.92L661.054 129.416L660.498 128.913ZM661.678 129.844C661.956 129.537 661.933 129.063 661.626 128.785C661.319 128.507 660.845 128.53 660.567 128.837L661.122 129.341L661.678 129.844ZM665.303 123.562C665.028 123.871 665.055 124.345 665.364 124.621C665.674 124.896 666.148 124.869 666.423 124.56L665.863 124.061L665.303 123.562ZM666.491 124.484C666.766 124.174 666.739 123.7 666.429 123.425C666.12 123.149 665.646 123.177 665.37 123.486L665.931 123.985L666.491 124.484ZM670.072 118.169C669.798 118.48 669.829 118.954 670.14 119.228C670.451 119.501 670.925 119.47 671.199 119.159L670.635 118.664L670.072 118.169ZM671.266 119.083C671.539 118.772 671.508 118.298 671.197 118.024C670.886 117.751 670.412 117.782 670.139 118.093L670.702 118.588L671.266 119.083ZM674.807 112.749C674.536 113.062 674.569 113.536 674.881 113.807C675.194 114.079 675.667 114.046 675.939 113.734L675.373 113.241L674.807 112.749ZM676.006 113.657C676.278 113.344 676.245 112.871 675.932 112.599C675.62 112.327 675.146 112.36 674.874 112.673L675.44 113.165L676.006 113.657ZM679.517 107.313C679.246 107.627 679.281 108.1 679.594 108.371C679.908 108.642 680.381 108.607 680.652 108.294L680.084 107.803L679.517 107.313ZM680.718 108.217C680.989 107.904 680.954 107.43 680.641 107.159C680.327 106.889 679.853 106.923 679.583 107.237L680.15 107.727L680.718 108.217ZM684.223 101.852C683.953 102.166 683.988 102.64 684.302 102.91C684.616 103.18 685.09 103.145 685.36 102.831L684.791 102.341L684.223 101.852ZM685.426 102.754C685.696 102.44 685.661 101.966 685.347 101.696C685.033 101.426 684.559 101.462 684.289 101.776L684.857 102.265L685.426 102.754ZM688.923 96.3888C688.653 96.7027 688.688 97.1763 689.002 97.4464C689.316 97.7166 689.79 97.6811 690.06 97.3672L689.492 96.878L688.923 96.3888ZM690.126 97.2903C690.396 96.9763 690.361 96.5028 690.047 96.2326C689.733 95.9624 689.259 95.9979 688.989 96.3118L689.558 96.801L690.126 97.2903ZM693.622 90.9366C693.352 91.2501 693.386 91.7237 693.7 91.9945C694.013 92.2652 694.487 92.2307 694.758 91.9172L694.19 91.4269L693.622 90.9366ZM694.824 91.84C695.095 91.5266 695.06 91.053 694.747 90.7822C694.434 90.5114 693.96 90.5459 693.689 90.8594L694.257 91.3497L694.824 91.84ZM698.328 85.5091C698.056 85.8215 698.089 86.2952 698.401 86.5673C698.714 86.8393 699.188 86.8066 699.46 86.4943L698.894 86.0017L698.328 85.5091ZM699.527 86.4168C699.799 86.1044 699.767 85.6307 699.454 85.3586C699.142 85.0866 698.668 85.1192 698.396 85.4315L698.962 85.9242L699.527 86.4168ZM703.089 80.0765C702.815 80.3871 702.844 80.8611 703.155 81.1351C703.466 81.4092 703.94 81.3796 704.214 81.069L703.651 80.5727L703.089 80.0765ZM704.28 80.9938C704.554 80.6832 704.524 80.2092 704.214 79.9352C703.903 79.6611 703.429 79.6906 703.155 80.0012L703.718 80.4975L704.28 80.9938ZM707.891 74.6823C707.614 74.9903 707.639 75.4645 707.947 75.7415C708.255 76.0184 708.73 75.9933 709.007 75.6853L708.449 75.1838L707.891 74.6823ZM709.074 75.6104C709.351 75.3024 709.326 74.8282 709.018 74.5512C708.71 74.2742 708.236 74.2993 707.959 74.6072L708.516 75.1088L709.074 75.6104ZM712.75 69.3455C712.469 69.6499 712.488 70.1244 712.792 70.4053C713.097 70.6862 713.571 70.6672 713.852 70.3629L713.301 69.8542L712.75 69.3455ZM713.921 70.2884C714.202 69.9841 714.183 69.5096 713.879 69.2286C713.574 68.9476 713.1 68.9665 712.819 69.2708L713.37 69.7796L713.921 70.2884ZM717.687 64.0854C717.401 64.3848 717.412 64.8595 717.711 65.1458C718.01 65.432 718.485 65.4214 718.771 65.122L718.229 64.6037L717.687 64.0854ZM718.842 65.0484C719.128 64.7491 719.118 64.2744 718.818 63.988C718.519 63.7017 718.044 63.7122 717.758 64.0115L718.3 64.53L718.842 65.0484ZM722.733 58.9266C722.44 59.2191 722.439 59.694 722.731 59.9873C723.024 60.2806 723.499 60.2813 723.792 59.9889L723.262 59.4578L722.733 58.9266ZM723.864 59.9166C724.158 59.6243 724.159 59.1494 723.866 58.856C723.574 58.5625 723.099 58.5617 722.806 58.854L723.335 59.3853L723.864 59.9166ZM727.928 53.9049C727.625 54.1876 727.609 54.6622 727.891 54.9649C728.174 55.2677 728.649 55.2839 728.951 55.0012L728.44 54.4531L727.928 53.9049ZM729.026 54.9313C729.329 54.6487 729.346 54.1741 729.063 53.8713C728.781 53.5684 728.306 53.5519 728.003 53.8344L728.515 54.3828L729.026 54.9313ZM733.327 49.0783C733.011 49.3467 732.973 49.8201 733.241 50.1355C733.51 50.451 733.983 50.4891 734.299 50.2207L733.813 49.6495L733.327 49.0783ZM734.376 50.1545C734.692 49.8863 734.731 49.413 734.462 49.0974C734.194 48.7817 733.721 48.7432 733.405 49.0114L733.891 49.583L734.376 50.1545ZM739.001 44.5515C738.668 44.7978 738.598 45.2675 738.845 45.6005C739.091 45.9335 739.561 46.0037 739.894 45.7573L739.448 45.1544L739.001 44.5515ZM739.974 45.6975C740.308 45.4516 740.379 44.982 740.133 44.6487C739.887 44.3155 739.417 44.2447 739.084 44.4906L739.529 45.0941L739.974 45.6975ZM745.041 40.5257C744.684 40.7352 744.564 41.1947 744.773 41.552C744.983 41.9094 745.443 42.0292 745.8 41.8198L745.421 41.1727L745.041 40.5257ZM745.884 41.7707C746.241 41.5619 746.362 41.1027 746.153 40.7449C745.945 40.3872 745.485 40.2664 745.128 40.4752L745.506 41.123L745.884 41.7707ZM751.649 37.3617C751.259 37.5018 751.057 37.9314 751.197 38.3212C751.337 38.711 751.766 38.9134 752.156 38.7733L751.903 38.0675L751.649 37.3617ZM752.252 38.7392C752.642 38.6005 752.846 38.1717 752.707 37.7814C752.569 37.3911 752.14 37.1871 751.749 37.3258L752.001 38.0325L752.252 38.7392ZM758.904 35.9617C758.49 35.963 758.155 36.2998 758.156 36.714C758.158 37.1283 758.494 37.463 758.909 37.4617L758.906 36.7117L758.904 35.9617ZM152.753 192.751V193.501C152.77 193.501 152.787 193.501 152.804 193.501L152.803 192.751L152.803 192.001C152.786 192.001 152.77 192.001 152.753 192.001V192.751ZM159.86 192.236L159.966 192.978C160 192.974 160.033 192.969 160.067 192.964L159.959 192.222L159.851 191.479C159.818 191.484 159.786 191.489 159.753 191.494L159.86 192.236ZM166.879 190.758L167.078 191.481C167.111 191.472 167.143 191.463 167.176 191.454L166.975 190.732L166.774 190.009C166.743 190.018 166.711 190.027 166.679 190.036L166.879 190.758ZM173.679 188.468L173.955 189.166C173.986 189.153 174.017 189.141 174.049 189.129L173.772 188.432L173.494 187.735C173.464 187.747 173.433 187.759 173.402 187.771L173.679 188.468ZM180.225 185.52L180.562 186.19C180.592 186.175 180.622 186.16 180.652 186.145L180.314 185.475L179.976 184.806C179.947 184.821 179.918 184.836 179.888 184.85L180.225 185.52ZM186.517 182.049L186.902 182.693C186.931 182.676 186.959 182.658 186.988 182.641L186.602 181.998L186.216 181.355C186.188 181.372 186.16 181.389 186.131 181.406L186.517 182.049ZM192.569 178.165L192.992 178.784C193.02 178.765 193.047 178.746 193.075 178.727L192.651 178.109L192.227 177.49C192.2 177.508 192.173 177.527 192.146 177.546L192.569 178.165ZM198.39 173.965L198.843 174.562C198.87 174.541 198.898 174.52 198.925 174.5L198.472 173.902L198.018 173.305C197.991 173.326 197.964 173.346 197.937 173.367L198.39 173.965ZM204.008 169.515L204.485 170.093C204.512 170.072 204.538 170.05 204.564 170.028L204.087 169.45L203.61 168.871C203.583 168.893 203.557 168.914 203.531 168.936L204.008 169.515ZM209.463 164.856L209.96 165.418C209.985 165.395 210.011 165.373 210.036 165.35L209.54 164.788L209.043 164.226C209.018 164.249 208.992 164.271 208.967 164.293L209.463 164.856ZM214.78 160.025L215.292 160.573C215.316 160.55 215.341 160.527 215.366 160.504L214.854 159.956L214.342 159.408C214.317 159.431 214.292 159.454 214.268 159.477L214.78 160.025ZM219.978 155.054L220.502 155.59C220.526 155.567 220.55 155.544 220.574 155.52L220.05 154.984L219.525 154.448C219.501 154.471 219.477 154.495 219.453 154.518L219.978 155.054ZM225.075 149.97L225.609 150.496C225.633 150.472 225.656 150.448 225.679 150.424L225.145 149.898L224.61 149.373C224.587 149.396 224.563 149.42 224.54 149.444L225.075 149.97ZM230.061 144.82L230.604 145.337C230.627 145.313 230.651 145.288 230.674 145.263L230.131 144.746L229.589 144.228C229.565 144.253 229.542 144.277 229.518 144.302L230.061 144.82ZM234.982 139.592L235.531 140.103C235.554 140.078 235.577 140.054 235.6 140.029L235.05 139.518L234.501 139.007C234.478 139.032 234.455 139.057 234.432 139.082L234.982 139.592ZM239.849 134.303L240.403 134.808C240.426 134.784 240.449 134.759 240.471 134.734L239.917 134.229L239.363 133.723C239.34 133.748 239.317 133.773 239.295 133.798L239.849 134.303ZM244.672 128.97L245.23 129.471C245.253 129.446 245.275 129.421 245.298 129.396L244.74 128.895L244.182 128.394C244.159 128.419 244.137 128.444 244.114 128.469L244.672 128.97ZM249.454 123.616L250.014 124.114C250.037 124.089 250.059 124.064 250.082 124.038L249.521 123.54L248.96 123.042C248.938 123.067 248.915 123.093 248.893 123.118L249.454 123.616ZM254.217 118.238L254.779 118.735C254.801 118.709 254.824 118.684 254.846 118.659L254.284 118.162L253.722 117.666C253.7 117.691 253.677 117.716 253.655 117.742L254.217 118.238ZM258.971 112.85L259.534 113.346C259.556 113.321 259.578 113.296 259.601 113.27L259.038 112.774L258.476 112.278C258.453 112.303 258.431 112.329 258.409 112.354L258.971 112.85ZM263.722 107.468L264.284 107.965C264.306 107.939 264.329 107.914 264.351 107.889L263.789 107.392L263.227 106.895C263.205 106.921 263.183 106.946 263.16 106.971L263.722 107.468ZM268.492 102.09L269.052 102.589C269.074 102.563 269.097 102.538 269.119 102.513L268.559 102.014L267.999 101.516C267.977 101.541 267.954 101.566 267.932 101.591L268.492 102.09ZM273.286 96.7337L273.843 97.2355C273.866 97.2105 273.888 97.1854 273.911 97.1604L273.354 96.6585L272.796 96.1565C272.774 96.1816 272.751 96.2067 272.729 96.2318L273.286 96.7337ZM278.112 91.4162L278.665 91.9226C278.688 91.8976 278.711 91.8727 278.733 91.8477L278.18 91.3412L277.627 90.8348C277.604 90.8598 277.581 90.8848 277.558 90.9098L278.112 91.4162ZM282.979 86.1529L283.527 86.6652C283.55 86.6408 283.573 86.6164 283.595 86.592L283.048 86.0796L282.5 85.5672C282.477 85.5917 282.454 85.6162 282.431 85.6406L282.979 86.1529ZM287.931 80.9281L288.471 81.4479C288.495 81.4238 288.518 81.3996 288.541 81.3755L288 80.8556L287.46 80.3357C287.437 80.3599 287.413 80.3841 287.39 80.4083L287.931 80.9281ZM292.958 75.7846L293.489 76.3135C293.513 76.2897 293.537 76.2659 293.561 76.2421L293.029 75.713L292.497 75.1839C292.474 75.2078 292.45 75.2317 292.426 75.2556L292.958 75.7846ZM298.075 70.7444L298.595 71.2845C298.62 71.261 298.644 71.2376 298.668 71.2141L298.148 70.6739L297.628 70.1337C297.603 70.1573 297.579 70.1808 297.555 70.2044L298.075 70.7444ZM303.3 65.8323L303.807 66.3855C303.832 66.3626 303.857 66.3396 303.882 66.3167L303.376 65.7632L302.87 65.2098C302.844 65.2329 302.819 65.256 302.794 65.2791L303.3 65.8323ZM308.656 61.077L309.145 61.6459C309.171 61.6236 309.197 61.6013 309.223 61.579L308.734 61.0099L308.246 60.4408C308.22 60.4633 308.194 60.4858 308.167 60.5082L308.656 61.077ZM314.202 56.4877L314.669 57.0749C314.695 57.0543 314.721 57.0337 314.747 57.0132L314.28 56.4257L313.814 55.8382C313.788 55.8589 313.762 55.8797 313.736 55.9004L314.202 56.4877ZM319.935 52.1429L320.373 52.7515C320.4 52.7321 320.427 52.7127 320.454 52.6934L320.016 52.0845L319.578 51.4755C319.551 51.4951 319.524 51.5146 319.497 51.5342L319.935 52.1429ZM325.883 48.1089L326.285 48.742C326.313 48.7242 326.341 48.7064 326.369 48.6887L325.968 48.0552L325.566 47.4216C325.538 47.4396 325.51 47.4577 325.481 47.4757L325.883 48.1089ZM332.077 44.4731L332.432 45.1337C332.461 45.118 332.491 45.1023 332.52 45.0867L332.165 44.4257L331.811 43.7647C331.781 43.7806 331.752 43.7966 331.722 43.8125L332.077 44.4731ZM338.54 41.3524L338.835 42.0422C338.865 42.0292 338.895 42.0163 338.926 42.0034L338.633 41.3131L338.339 40.6228C338.308 40.636 338.277 40.6492 338.246 40.6625L338.54 41.3524ZM345.279 38.8974L345.495 39.6157C345.526 39.6062 345.558 39.5968 345.59 39.5873L345.375 38.8687L345.161 38.15C345.128 38.1597 345.096 38.1694 345.063 38.1791L345.279 38.8974ZM352.264 37.2888L352.381 38.0296C352.414 38.0244 352.446 38.0193 352.479 38.0142L352.363 37.2732L352.247 36.5322C352.214 36.5375 352.18 36.5427 352.147 36.548L352.264 37.2888ZM359.411 36.7117L359.412 37.4617C359.428 37.4617 359.445 37.4617 359.461 37.4617V36.7117V35.9617C359.444 35.9617 359.427 35.9617 359.41 35.9617L359.411 36.7117ZM359.461 36.7117V37.4617C359.478 37.4617 359.494 37.4617 359.51 37.4617L359.511 36.7117L359.512 35.9617C359.495 35.9617 359.478 35.9617 359.461 35.9617V36.7117ZM366.412 37.2482L366.3 37.9896C366.331 37.9945 366.363 37.9993 366.395 38.0042L366.509 37.263L366.623 36.5218C366.591 36.5167 366.558 36.5117 366.525 36.5067L366.412 37.2482ZM373.265 38.7686L373.056 39.489C373.087 39.4979 373.118 39.5069 373.149 39.5159L373.359 38.7958L373.568 38.0758C373.537 38.0665 373.505 38.0573 373.473 38.0481L373.265 38.7686ZM379.891 41.0956L379.606 41.7893C379.636 41.8015 379.666 41.8138 379.695 41.8261L379.981 41.1328L380.267 40.4395C380.237 40.4269 380.206 40.4144 380.176 40.4019L379.891 41.0956ZM386.264 44.0596L385.92 44.7257C385.948 44.7405 385.977 44.7554 386.006 44.7703L386.351 44.1046L386.697 43.4389C386.667 43.4237 386.638 43.4086 386.609 43.3935L386.264 44.0596ZM392.39 47.52L391.999 48.1601C392.026 48.1769 392.054 48.1937 392.081 48.2106L392.473 47.5709L392.865 46.9312C392.837 46.9141 392.809 46.897 392.781 46.88L392.39 47.52ZM398.288 51.3678L397.861 51.9844C397.888 52.0027 397.914 52.0211 397.941 52.0395L398.368 51.4232L398.796 50.8069C398.769 50.7883 398.742 50.7698 398.715 50.7512L398.288 51.3678ZM403.969 55.5074L403.514 56.1034C403.54 56.1237 403.567 56.144 403.593 56.1644L404.049 55.5686L404.505 54.9728C404.478 54.9523 404.451 54.9318 404.424 54.9113L403.969 55.5074ZM409.458 59.8729L408.98 60.4512C409.006 60.4724 409.031 60.4935 409.057 60.5147L409.535 59.9367L410.013 59.3586C409.987 59.3373 409.961 59.316 409.935 59.2946L409.458 59.8729ZM414.799 64.4318L414.304 64.9948C414.328 65.0166 414.353 65.0385 414.378 65.0603L414.874 64.4975L415.369 63.9347C415.345 63.9127 415.32 63.8908 415.295 63.8688L414.799 64.4318ZM420.017 69.1493L419.507 69.6993C419.531 69.7216 419.555 69.7439 419.579 69.7663L420.089 69.2165L420.599 68.6667C420.575 68.6443 420.551 68.6218 420.527 68.5994L420.017 69.1493ZM425.129 73.9966L424.607 74.5355C424.631 74.5582 424.654 74.5809 424.678 74.6036L425.2 74.0649L425.721 73.5262C425.698 73.5034 425.674 73.4805 425.651 73.4577L425.129 73.9966ZM430.143 78.9393L429.612 79.4689C429.635 79.4925 429.659 79.5161 429.682 79.5397L430.213 79.0102L430.745 78.4808C430.721 78.4571 430.697 78.4334 430.674 78.4098L430.143 78.9393ZM435.06 83.9444L434.521 84.4663C434.544 84.49 434.567 84.5138 434.59 84.5376L435.129 84.0158L435.668 83.494C435.645 83.4701 435.622 83.4463 435.598 83.4225L435.06 83.9444ZM439.923 89.0237L439.378 89.5394C439.401 89.5633 439.423 89.5872 439.446 89.6111L439.991 89.0956L440.535 88.58C440.513 88.556 440.49 88.5321 440.467 88.5081L439.923 89.0237ZM444.739 94.1597L444.19 94.6703C444.212 94.6944 444.235 94.7185 444.257 94.7425L444.806 94.2319L445.356 93.7213C445.333 93.6972 445.311 93.6731 445.289 93.649L444.739 94.1597ZM449.509 99.3269L448.957 99.8338C448.979 99.8582 449.001 99.8827 449.024 99.9071L449.576 99.4002L450.129 98.8932C450.107 98.8688 450.084 98.8443 450.062 98.8199L449.509 99.3269ZM454.247 104.518L453.692 105.022C453.714 105.047 453.736 105.071 453.758 105.095L454.313 104.591L454.868 104.087C454.846 104.062 454.824 104.038 454.802 104.013L454.247 104.518ZM458.97 109.731L458.414 110.234C458.436 110.259 458.458 110.283 458.48 110.308L459.037 109.805L459.593 109.302C459.571 109.277 459.549 109.253 459.527 109.228L458.97 109.731ZM463.684 114.951L463.127 115.454C463.149 115.478 463.171 115.503 463.193 115.527L463.75 115.025L464.307 114.522C464.285 114.498 464.263 114.473 464.24 114.449L463.684 114.951ZM468.398 120.169L467.842 120.673C467.864 120.697 467.886 120.721 467.908 120.746L468.464 120.243L469.02 119.74C468.998 119.715 468.976 119.691 468.954 119.666L468.398 120.169ZM473.125 125.38L472.571 125.885C472.593 125.909 472.615 125.934 472.638 125.958L473.192 125.453L473.747 124.948C473.724 124.924 473.702 124.899 473.68 124.875L473.125 125.38ZM477.871 130.566L477.319 131.074C477.341 131.098 477.364 131.123 477.386 131.147L477.938 130.639L478.49 130.131C478.468 130.107 478.445 130.083 478.423 130.058L477.871 130.566ZM482.647 135.722L482.099 136.233C482.121 136.257 482.143 136.281 482.166 136.305L482.714 135.794L483.262 135.282C483.24 135.258 483.217 135.234 483.195 135.21L482.647 135.722ZM487.476 140.847L486.933 141.364C486.956 141.388 486.978 141.412 487.001 141.436L487.544 140.919L488.087 140.402C488.065 140.378 488.042 140.354 488.019 140.33L487.476 140.847ZM492.355 145.915L491.818 146.438C491.841 146.462 491.864 146.486 491.887 146.51L492.424 145.986L492.961 145.462C492.938 145.439 492.915 145.415 492.892 145.391L492.355 145.915ZM497.292 150.906L496.763 151.437C496.786 151.461 496.81 151.485 496.834 151.508L497.363 150.976L497.892 150.445C497.868 150.421 497.845 150.398 497.821 150.374L497.292 150.906ZM502.318 155.822L501.798 156.363C501.822 156.386 501.846 156.408 501.869 156.431L502.389 155.89L502.908 155.349C502.884 155.326 502.861 155.303 502.837 155.281L502.318 155.822ZM507.454 160.648L506.947 161.2C506.971 161.222 506.995 161.244 507.019 161.267L507.526 160.714L508.034 160.162C508.009 160.139 507.985 160.117 507.961 160.095L507.454 160.648ZM512.698 165.34L512.205 165.906C512.23 165.928 512.255 165.949 512.28 165.971L512.772 165.405L513.265 164.839C513.24 164.818 513.215 164.796 513.19 164.774L512.698 165.34ZM518.068 169.87L517.594 170.451C517.62 170.472 517.645 170.494 517.671 170.515L518.145 169.933L518.619 169.352C518.593 169.331 518.567 169.31 518.542 169.289L518.068 169.87ZM523.587 174.202L523.135 174.802C523.162 174.822 523.189 174.842 523.216 174.862L523.667 174.263L524.118 173.664C524.091 173.644 524.064 173.623 524.038 173.603L523.587 174.202ZM529.285 178.295L528.862 178.914C528.889 178.933 528.916 178.951 528.943 178.969L529.365 178.35L529.787 177.73C529.76 177.712 529.734 177.693 529.707 177.675L529.285 178.295ZM535.212 182.101L534.826 182.744C534.854 182.76 534.882 182.777 534.91 182.794L535.296 182.151L535.681 181.507C535.654 181.491 535.626 181.474 535.598 181.458L535.212 182.101ZM541.364 185.516L541.025 186.185C541.054 186.199 541.083 186.214 541.112 186.229L541.451 185.56L541.79 184.891C541.762 184.877 541.733 184.862 541.704 184.847L541.364 185.516ZM547.76 188.435L547.48 189.13C547.51 189.143 547.541 189.155 547.571 189.167L547.851 188.471L548.13 187.775C548.1 187.763 548.07 187.751 548.04 187.739L547.76 188.435ZM554.402 190.721L554.197 191.443C554.229 191.452 554.26 191.461 554.292 191.47L554.496 190.748L554.699 190.026C554.668 190.018 554.637 190.009 554.606 190L554.402 190.721ZM561.261 192.215L561.15 192.957C561.183 192.962 561.216 192.967 561.248 192.972L561.358 192.23L561.468 191.488C561.436 191.483 561.404 191.479 561.372 191.474L561.261 192.215ZM568.263 192.751L568.262 193.501C568.279 193.501 568.295 193.501 568.312 193.501V192.751V192.001C568.296 192.001 568.28 192.001 568.264 192.001L568.263 192.751ZM568.312 192.751V193.501C568.329 193.501 568.346 193.501 568.363 193.501L568.362 192.751L568.362 192.001C568.345 192.001 568.329 192.001 568.312 192.001V192.751ZM575.429 192.21L575.54 192.952C575.573 192.947 575.607 192.942 575.64 192.937L575.528 192.195L575.416 191.453C575.383 191.458 575.351 191.463 575.318 191.468L575.429 192.21ZM582.453 190.686L582.657 191.408C582.689 191.398 582.722 191.389 582.754 191.38L582.549 190.658L582.344 189.937C582.313 189.946 582.281 189.955 582.249 189.964L582.453 190.686ZM589.26 188.361L589.537 189.058C589.569 189.046 589.6 189.033 589.631 189.02L589.353 188.324L589.074 187.628C589.043 187.64 589.012 187.652 588.982 187.665L589.26 188.361ZM595.822 185.404L596.158 186.075C596.188 186.059 596.218 186.044 596.248 186.029L595.912 185.359L595.575 184.689C595.546 184.704 595.516 184.719 595.487 184.733L595.822 185.404ZM602.145 181.949L602.526 182.595C602.555 182.578 602.584 182.561 602.613 182.544L602.231 181.899L601.849 181.253C601.82 181.27 601.792 181.287 601.763 181.304L602.145 181.949ZM608.244 178.102L608.661 178.726C608.689 178.707 608.717 178.688 608.745 178.67L608.327 178.047L607.909 177.424C607.882 177.442 607.854 177.461 607.827 177.479L608.244 178.102ZM614.126 173.954L614.572 174.557C614.6 174.537 614.627 174.516 614.655 174.496L614.209 173.893L613.762 173.29C613.735 173.311 613.707 173.331 613.68 173.351L614.126 173.954ZM619.814 169.568L620.284 170.153C620.31 170.132 620.337 170.11 620.364 170.089L619.894 169.504L619.425 168.919C619.398 168.94 619.372 168.961 619.345 168.983L619.814 169.568ZM625.349 164.975L625.837 165.545C625.863 165.523 625.889 165.5 625.915 165.478L625.427 164.909L624.938 164.34C624.913 164.362 624.887 164.384 624.861 164.406L625.349 164.975ZM630.751 160.211L631.254 160.767C631.279 160.744 631.305 160.721 631.33 160.698L630.826 160.143L630.322 159.587C630.297 159.61 630.272 159.633 630.247 159.655L630.751 160.211ZM636.035 155.303L636.552 155.847C636.576 155.824 636.6 155.801 636.625 155.777L636.108 155.234L635.591 154.69C635.567 154.714 635.542 154.737 635.518 154.76L636.035 155.303ZM641.211 150.281L641.739 150.814C641.763 150.79 641.787 150.766 641.812 150.742L641.284 150.209L640.756 149.676C640.732 149.7 640.708 149.724 640.684 149.748L641.211 150.281ZM646.274 145.181L646.811 145.705C646.835 145.681 646.858 145.656 646.882 145.632L646.345 145.108L645.809 144.584C645.785 144.609 645.761 144.633 645.738 144.657L646.274 145.181ZM651.265 139.992L651.81 140.508C651.833 140.484 651.856 140.459 651.879 140.435L651.335 139.919L650.791 139.403C650.768 139.427 650.744 139.452 650.721 139.476L651.265 139.992ZM656.19 134.731L656.741 135.241C656.764 135.216 656.787 135.191 656.81 135.166L656.259 134.657L655.708 134.148C655.686 134.173 655.663 134.197 655.64 134.222L656.19 134.731ZM661.054 129.416L661.61 129.92C661.633 129.895 661.656 129.87 661.678 129.844L661.122 129.341L660.567 128.837C660.544 128.863 660.521 128.888 660.498 128.913L661.054 129.416ZM665.863 124.061L666.423 124.56C666.446 124.534 666.468 124.509 666.491 124.484L665.931 123.985L665.37 123.486C665.348 123.512 665.326 123.537 665.303 123.562L665.863 124.061ZM670.635 118.664L671.199 119.159C671.221 119.134 671.243 119.108 671.266 119.083L670.702 118.588L670.139 118.093C670.116 118.118 670.094 118.144 670.072 118.169L670.635 118.664ZM675.373 113.241L675.939 113.734C675.962 113.708 675.984 113.682 676.006 113.657L675.44 113.165L674.874 112.673C674.852 112.698 674.83 112.724 674.807 112.749L675.373 113.241ZM680.084 107.803L680.652 108.294C680.674 108.268 680.696 108.243 680.718 108.217L680.15 107.727L679.583 107.237C679.561 107.262 679.539 107.288 679.517 107.313L680.084 107.803ZM684.791 102.341L685.36 102.831C685.382 102.805 685.404 102.78 685.426 102.754L684.857 102.265L684.289 101.776C684.267 101.801 684.245 101.827 684.223 101.852L684.791 102.341ZM689.492 96.878L690.06 97.3672C690.082 97.3415 690.104 97.3159 690.126 97.2903L689.558 96.801L688.989 96.3118C688.967 96.3375 688.945 96.3631 688.923 96.3888L689.492 96.878ZM694.19 91.4269L694.758 91.9172C694.78 91.8915 694.802 91.8657 694.824 91.84L694.257 91.3497L693.689 90.8594C693.667 90.8851 693.645 90.9109 693.622 90.9366L694.19 91.4269ZM698.894 86.0017L699.46 86.4943C699.482 86.4684 699.505 86.4426 699.527 86.4168L698.962 85.9242L698.396 85.4315C698.374 85.4574 698.351 85.4833 698.328 85.5091L698.894 86.0017ZM703.651 80.5727L704.214 81.069C704.236 81.0439 704.258 81.0188 704.28 80.9938L703.718 80.4975L703.155 80.0012C703.133 80.0263 703.111 80.0514 703.089 80.0765L703.651 80.5727ZM708.449 75.1838L709.007 75.6853C709.029 75.6603 709.052 75.6353 709.074 75.6104L708.516 75.1088L707.959 74.6072C707.936 74.6322 707.914 74.6573 707.891 74.6823L708.449 75.1838ZM713.301 69.8542L713.852 70.3629C713.875 70.338 713.898 70.3132 713.921 70.2884L713.37 69.7796L712.819 69.2708C712.796 69.2957 712.773 69.3206 712.75 69.3455L713.301 69.8542ZM718.229 64.6037L718.771 65.122C718.795 65.0975 718.818 65.0729 718.842 65.0484L718.3 64.53L717.758 64.0115C717.734 64.0361 717.711 64.0607 717.687 64.0854L718.229 64.6037ZM723.262 59.4578L723.792 59.9889C723.816 59.9648 723.84 59.9407 723.864 59.9166L723.335 59.3853L722.806 58.854C722.781 58.8782 722.757 58.9024 722.733 58.9266L723.262 59.4578ZM728.44 54.4531L728.951 55.0012C728.977 54.9779 729.001 54.9546 729.026 54.9313L728.515 54.3828L728.003 53.8344C727.978 53.8579 727.953 53.8814 727.928 53.9049L728.44 54.4531ZM733.813 49.6495L734.299 50.2207C734.325 50.1986 734.351 50.1766 734.376 50.1545L733.891 49.583L733.405 49.0114C733.379 49.0337 733.353 49.056 733.327 49.0783L733.813 49.6495ZM739.448 45.1544L739.894 45.7573C739.921 45.7374 739.948 45.7174 739.974 45.6975L739.529 45.0941L739.084 44.4906C739.056 44.5109 739.029 44.5312 739.001 44.5515L739.448 45.1544ZM745.421 41.1727L745.8 41.8198C745.828 41.8034 745.856 41.787 745.884 41.7707L745.506 41.123L745.128 40.4752C745.099 40.492 745.07 40.5088 745.041 40.5257L745.421 41.1727ZM751.903 38.0675L752.156 38.7733C752.188 38.7619 752.22 38.7505 752.252 38.7392L752.001 38.0325L751.749 37.3258C751.716 37.3377 751.682 37.3496 751.649 37.3617L751.903 38.0675ZM758.906 36.7117L758.909 37.4617C758.924 37.4617 758.94 37.4617 758.955 37.4617V36.7117V35.9617C758.938 35.9617 758.921 35.9617 758.904 35.9617L758.906 36.7117Z" fill="#BEBEBE"/>
<path d="M-262.7 192.739C-192.012 192.739 -123.466 36.7 -55.9916 36.7C11.4832 36.7 84.3131 192.739 152.859 192.739" stroke="#BEBEBE" stroke-width="1.5" stroke-linecap="round" stroke-dasharray="0.1 7"/>
<path d="M27 77C86.056 77 101.168 151.95 166.667 151.95C232.165 151.95 240.755 76.9626 305.18 76.9626C369.604 76.9626 378.194 151.95 445.84 151.95C513.486 151.95 515.634 76.9626 583.28 76.9626C650.926 76.9626 655.221 151.95 721.793 151.95C738.196 151.95 750.362 147.397 760.058 140.535" stroke="#BEBEBE"/>
<path d="M-251 77C-186.598 77 -178.012 153 -110.39 153C-42.7683 153 -40.6216 77 27 77" stroke="#BEBEBE"/>
<path d="M91.5 152L83 166.571H100L91.5 152Z" stroke="#BEBEBE"/>
<circle cx="2.4" cy="2.4" r="2.4" transform="matrix(-1 0 0 1 94 159)" fill="#BEBEBE"/>
<path d="M58.65 183.571H57.78V176.571H58.65V179.611H61.55V176.571H62.42V183.571H61.55V180.411H58.65V183.571ZM66.7412 183.571H65.8712V180.981L63.3912 176.571H64.3912L66.3112 180.021L68.2512 176.571H69.2112L66.7412 180.981V183.571ZM71.2023 183.571H70.3323V176.571H72.7723C74.1723 176.571 75.0923 177.411 75.0923 178.721C75.0923 180.031 74.1723 180.881 72.7723 180.881H71.2023V183.571ZM71.2023 177.371V180.081H72.6923C73.6123 180.081 74.2023 179.551 74.2023 178.721C74.2023 177.891 73.6223 177.371 72.7023 177.371H71.2023ZM81.0535 183.571H76.5335V176.571H80.9235V177.371H77.4035V179.611H80.3935V180.411H77.4035V182.771H81.0535V183.571ZM83.5547 183.571H82.6847V176.571H85.0547C86.4547 176.571 87.3847 177.411 87.3847 178.721C87.3847 179.701 86.7947 180.461 85.8947 180.711L87.4647 183.571H86.4847L85.0047 180.881H83.5547V183.571ZM83.5547 177.371V180.081H84.9847C85.9047 180.081 86.4947 179.541 86.4947 178.721C86.4947 177.901 85.9047 177.371 84.9947 177.371H83.5547ZM93.4459 183.571H89.1859V176.571H90.0559V182.771H93.4459V183.571ZM99.537 176.571V177.291H97.737V182.851H99.537V183.571H95.067V182.851H96.867V177.291H95.067V176.571H99.537ZM105.898 182.811H106.238V183.571H105.798C105.368 183.571 105.088 183.491 104.858 183.231C104.478 183.491 104.028 183.631 103.508 183.631C101.898 183.631 100.908 182.291 100.908 180.071C100.908 177.851 101.898 176.511 103.508 176.511C105.118 176.511 106.108 177.851 106.108 180.071C106.108 181.171 105.858 182.061 105.418 182.671C105.548 182.791 105.688 182.811 105.898 182.811ZM101.798 180.071C101.798 181.881 102.388 182.831 103.508 182.831C103.878 182.831 104.188 182.731 104.438 182.521L104.078 181.851C103.938 181.591 103.838 181.461 103.468 181.461H102.878V180.701H103.508C104.108 180.701 104.418 180.891 104.678 181.371L104.928 181.841C105.118 181.401 105.218 180.801 105.218 180.071C105.218 178.271 104.628 177.311 103.508 177.311C102.388 177.311 101.798 178.261 101.798 180.071ZM109.699 183.631C108.149 183.631 107.339 182.731 107.339 180.951V176.571H108.209V180.931C108.209 182.221 108.709 182.831 109.699 182.831C110.709 182.831 111.209 182.231 111.209 180.931V176.571H112.079V180.951C112.079 182.731 111.259 183.631 109.699 183.631ZM118.141 176.571V177.291H116.341V182.851H118.141V183.571H113.671V182.851H115.471V177.291H113.671V176.571H118.141ZM121.712 183.571H119.792V176.571H121.712C123.702 176.571 124.712 177.971 124.712 180.071C124.712 182.161 123.702 183.571 121.712 183.571ZM120.662 177.371V182.771H121.712C123.212 182.771 123.822 181.701 123.822 180.071C123.822 178.431 123.212 177.371 121.712 177.371H120.662Z" fill="#BEBEBE"/>
<path d="M415.5 174H430.5V189H415.5V174Z" stroke="#BEBEBE"/>
<circle cx="2.57143" cy="2.57143" r="2.57143" transform="matrix(-1 0 0 1 425.643 179)" fill="#BEBEBE"/>
<path d="M409.7 206H407.78V199H409.7C411.69 199 412.7 200.4 412.7 202.5C412.7 204.59 411.69 206 409.7 206ZM408.65 199.8V205.2H409.7C411.2 205.2 411.81 204.13 411.81 202.5C411.81 200.86 411.2 199.8 409.7 199.8H408.65ZM414.951 206H414.081V199H416.451C417.851 199 418.781 199.84 418.781 201.15C418.781 202.13 418.191 202.89 417.291 203.14L418.861 206H417.881L416.401 203.31H414.951V206ZM414.951 199.8V202.51H416.381C417.301 202.51 417.891 201.97 417.891 201.15C417.891 200.33 417.301 199.8 416.391 199.8H414.951ZM424.732 199V199.72H422.932V205.28H424.732V206H420.262V205.28H422.062V199.72H420.262V199H424.732ZM427.504 206H426.634V199H431.054V199.8H427.504V202.14H430.554V202.94H427.504V206ZM435.345 206H434.475V199.8H432.205V199H437.615V199.8H435.345V206Z" fill="#BEBEBE"/>
<path d="M513 172C513 167.582 516.582 164 521 164V164C525.418 164 529 167.582 529 172V172C529 176.418 525.418 180 521 180V180C516.582 180 513 176.418 513 172V172Z" stroke="#BEBEBE"/>
<circle cx="2.4" cy="2.4" r="2.4" transform="matrix(-1 0 0 1 523.4 169.6)" fill="#BEBEBE"/>
<path d="M216 66C216 61.5817 219.582 58 224 58V58C228.418 58 232 61.5817 232 66V66C232 70.4183 228.418 74 224 74V74C219.582 74 216 70.4183 216 66V66Z" stroke="#BEBEBE"/>
<circle cx="2.4" cy="2.4" r="2.4" transform="matrix(-1 0 0 1 226.4 63.6002)" fill="#BEBEBE"/>
<path d="M204.16 84H207.32V88.38C207.32 90.16 206.5 91.06 204.94 91.06C203.37 91.06 202.58 90.15 202.58 88.36H203.45C203.45 89.65 203.95 90.26 204.94 90.26C205.95 90.26 206.45 89.66 206.45 88.36V84.8H204.16V84ZM211.291 91.06C209.741 91.06 208.931 90.16 208.931 88.38V84H209.801V88.36C209.801 89.65 210.301 90.26 211.291 90.26C212.301 90.26 212.801 89.66 212.801 88.36V84H213.671V88.38C213.671 90.16 212.851 91.06 211.291 91.06ZM216.202 91H215.332V84H217.772C219.172 84 220.092 84.84 220.092 86.15C220.092 87.46 219.172 88.31 217.772 88.31H216.202V91ZM216.202 84.8V87.51H217.692C218.612 87.51 219.202 86.98 219.202 86.15C219.202 85.32 218.622 84.8 217.702 84.8H216.202ZM225.934 84V84.72H224.134V90.28H225.934V91H221.464V90.28H223.264V84.72H221.464V84H225.934ZM230.345 91H229.475V84.8H227.205V84H232.615V84.8H230.345V91ZM238.456 91H233.936V84H238.326V84.8H234.806V87.04H237.796V87.84H234.806V90.2H238.456V91ZM240.957 91H240.087V84H242.457C243.857 84 244.787 84.84 244.787 86.15C244.787 87.13 244.197 87.89 243.297 88.14L244.867 91H243.887L242.407 88.31H240.957V91ZM240.957 84.8V87.51H242.387C243.307 87.51 243.897 86.97 243.897 86.15C243.897 85.33 243.307 84.8 242.397 84.8H240.957Z" fill="#BEBEBE"/>
<path d="M621.5 85H636.5V100H621.5V85Z" stroke="#BEBEBE"/>
<circle cx="2.57143" cy="2.57143" r="2.57143" transform="matrix(-1 0 0 1 631.643 90.0002)" fill="#BEBEBE"/>
<path d="M611.7 117H610.83V110H611.7V113.78L614.78 110H615.81L613.33 113.05L616.01 117H614.97L612.76 113.75L611.7 115.05V117ZM617.301 117H616.411L618.761 110H619.841L622.191 117H621.271L620.641 115.11H617.931L617.301 117ZM619.281 110.95L618.181 114.32H620.391L619.281 110.95ZM623.782 117H622.982V110H624.002L625.512 113.41L627.032 110H628.022V117H627.222V111.42L625.882 114.41H625.132L623.782 111.42V117ZM633.934 110V110.72H632.134V116.28H633.934V117H629.464V116.28H631.264V110.72H629.464V110H633.934ZM636.415 117H635.585V110H636.435L639.395 115.37V110H640.225V117H639.375L636.415 111.62V117ZM644.106 117.06C642.496 117.06 641.506 115.72 641.506 113.5C641.506 111.28 642.496 109.94 644.106 109.94C645.716 109.94 646.706 111.28 646.706 113.5C646.706 115.72 645.716 117.06 644.106 117.06ZM644.106 116.26C645.226 116.26 645.816 115.3 645.816 113.5C645.816 111.7 645.226 110.74 644.106 110.74C642.986 110.74 642.396 111.69 642.396 113.5C642.396 115.31 642.986 116.26 644.106 116.26Z" fill="#BEBEBE"/>
<path d="M731 41.9999L722.5 56.5713H739.5L731 41.9999Z" stroke="#BEBEBE"/>
<circle cx="2.4" cy="2.4" r="2.4" transform="matrix(-1 0 0 1 733.5 49)" fill="#BEBEBE"/>
<path d="M719.698 73.5714H718.808L721.158 66.5714H722.238L724.588 73.5714H723.668L723.038 71.6814H720.328L719.698 73.5714ZM721.678 67.5214L720.578 70.8914H722.788L721.678 67.5214ZM725.899 73.5714H725.009L727.359 66.5714H728.439L730.789 73.5714H729.869L729.239 71.6814H726.529L725.899 73.5714ZM727.879 67.5214L726.779 70.8914H728.989L727.879 67.5214ZM734.6 73.5714H733.6L731.19 66.5714H732.11L734.11 72.4014L736.11 66.5714H737.01L734.6 73.5714ZM742.651 73.5714H738.131V66.5714H742.521V67.3714H739.001V69.6114H741.991V70.4114H739.001V72.7714H742.651V73.5714Z" fill="#BEBEBE"/>
<path d="M373.5 28.9999L365 43.5713H382L373.5 28.9999Z" stroke="#BEBEBE"/>
<circle cx="2.4" cy="2.4" r="2.4" transform="matrix(-1 0 0 1 376 36)" fill="#BEBEBE"/>
</g>
<defs>
<clipPath id="clip0_3798_51095">
<rect width="768" height="230" fill="white"/>
</clipPath>
</defs>
</svg>
